# xmcd CD database file
#
# Track frame offsets:
#	150
#	20545
#	40610
#	58975
#	79625
#	104167
#	128557
#	148580
#	167597
#	185015
#	219987
#	243752
#	259237
#
# Disc length: 3730 seconds
#
# Revision: 3
# Processed by: cddbd v1.5.2PL0 Copyright (c) Steve Scherf et al.
# Submitted via: CDex 1.51
#
DISCID=b30e900d
DTITLE=Ken Saydak - Foolish Man
DYEAR=1998
DGENRE=Blues
TTITLE0=Mama Please
TTITLE1=Ain't Found The Answer Yet
TTITLE2=Where Is My Life?
TTITLE3=Time I Spend Alone
TTITLE4=Crazy Arms
TTITLE5=Just To Hold My Hand
TTITLE6=Shoppin' And Snackin'
TTITLE7=Foolish Man
TTITLE8=Save Her Doctor
TTITLE9=Mother Earth
TTITLE10=This Little Girl Of Mine
TTITLE11=Walkin' Thing
TTITLE12=Thinking And Drinking
EXTD=YEAR: 1998
EXTT0=
EXTT1=
EXTT2=
EXTT3=
EXTT4=
EXTT5=
EXTT6=
EXTT7=
EXTT8=
EXTT9=
EXTT10=
EXTT11=
EXTT12=
PLAYORDER=
